HIERARCHY
ROOT pelvis
{
  OFFSET 0 100 0
  CHANNELS 6 Xposition Yposition Zposition Zrotation Xrotation Yrotation
  JOINT pelvis_right_femur
  {
    OFFSET -10.78128 -3.44521 -0.5502486
    CHANNELS 3 Zrotation Xrotation Yrotation
    JOINT right_femur_tibia
    {
      OFFSET -0.8047443 -44.0398 -0.1307829
      CHANNELS 3 Zrotation Xrotation Yrotation
      JOINT right_tibia_foot
      {
        OFFSET 3.006224 -47.83518 -5
        CHANNELS 3 Zrotation Xrotation Yrotation
        End Site
        {
          OFFSET 0 -5 15
        }
      }
    }
  }
  JOINT pelvis_left_femur
  {
    OFFSET 10.78128 -3.44521 -0.5502486
    CHANNELS 3 Zrotation Xrotation Yrotation
    JOINT left_femur_tibia
    {
      OFFSET 0.8047443 -44.0398 -0.1307829
      CHANNELS 3 Zrotation Xrotation Yrotation
      JOINT left_tibia_foot
      {
        OFFSET -4.370144 -48.10324 -4.275266
        CHANNELS 3 Zrotation Xrotation Yrotation
        End Site
        {
          OFFSET 0 -5 15
        }
      }
    }
  }
  JOINT pelvis_spine1
  {
    OFFSET 0 6.468898 -3.129235
    CHANNELS 3 Zrotation Xrotation Yrotation
    JOINT spine1
    {
      OFFSET 0 23.15396 4.99043
      CHANNELS 3 Zrotation Xrotation Yrotation
      JOINT spine2
      {
        OFFSET 0 20.79997 -5.064912
        CHANNELS 3 Zrotation Xrotation Yrotation
        JOINT neck
        {
          OFFSET 0 14.38658 9.616178
          CHANNELS 3 Zrotation Xrotation Yrotation
          End Site
          {
            OFFSET 0 20 0
          }
        }
      }
      JOINT right_manubrium
      {
        OFFSET -5.722621 16.35077 3.967754
        CHANNELS 3 Zrotation Xrotation Yrotation
        JOINT right_clavicle
        {
          OFFSET -13.16364 1.694482 -4.693211
          CHANNELS 3 Zrotation Xrotation Yrotation
          JOINT right_humerus
          {
            OFFSET -28.5034 -0.3100689 -2.792744
            CHANNELS 3 Zrotation Xrotation Yrotation
            JOINT right_radius
            {
              OFFSET -25.15693 0.02248979 -1.271978
              CHANNELS 3 Zrotation Xrotation Yrotation
              End Site
              {
                OFFSET -15 0 0
              }
            }
          }
        }
      }
      JOINT left_manubrium
      {
        OFFSET 5.722621 16.35077 3.967754
        CHANNELS 3 Zrotation Xrotation Yrotation
        JOINT left_clavicle
        {
          OFFSET 13.16364 1.694482 -4.693211
          CHANNELS 3 Zrotation Xrotation Yrotation
          JOINT left_humerus
          {
            OFFSET 29.39168 -1.063119 -2.237045
            CHANNELS 3 Zrotation Xrotation Yrotation
            JOINT left_radius
            {
              OFFSET 24.59957 -0.9528479 0.9047498
              CHANNELS 3 Zrotation Xrotation Yrotation
              End Site
              {
                OFFSET 15 -0 -0
              }
            }
          }
        }
      }
    }
  }
}
MOTION
Frames: 21
Frame Time: 0.0416666666667
33.55549 100.4929 243.9787 2.283019 -8.562354 -2.277805 0.210768 21.51361 7.910821 -0 9.967027 -0 6.038497 -14.23249 1.202034 -0.1678615 -24.39492 -4.313821 -0 33.49321 -0 -8.366174 -5.996146 19.87956 -1.181167 -0.5497576 10.10667 -1.649072 10.37469 -2.189141 2.372256 21.70095 5.21123 1.905843 -14.73343 7.026526 1.684272 -21.35353 11.77725 80.58401 22.35843 -7.00686 -0 0 25.38165 -26.11512 14.38742 13.18801 4.807779 -15.07973 -3.119324 -93.31955 21.98941 24.35 0 0 -12.52918 -3.847611 6.644577 16.30586
34.50545 99.86444 250.5424 2.295598 -8.449976 -2.684199 -0.4316993 22.55484 7.822709 -0 14.22955 -0 6.729982 -14.00274 1.258127 -0.62119 -24.81555 -4.935556 -0 29.59109 -0 -8.23417 -6.407216 19.66504 -1.307803 -0.6600011 10.0552 -1.940345 9.883748 -1.988511 2.460138 21.66254 5.173979 1.723484 -14.77525 7.240647 1.407623 -21.52626 11.48779 80.3338 21.87993 -6.010672 -0 0 26.27577 -26.27098 14.11952 13.4303 4.66655 -14.27069 -3.066993 -93.56086 22.23274 25.09594 0 0 -11.23166 -4.17094 6.594762 16.81084
35.51022 99.46699 257.2856 2.396773 -8.437892 -2.821081 -1.107785 22.67883 7.551814 -0 19.53871 -0 7.280326 -13.16625 0.9341236 -1.487121 -23.87152 -5.803393 -0 27.04196 -0 -8.062668 -6.858808 19.30934 -1.535719 -0.8517424 9.893977 -2.137888 9.484756 -1.904611 2.548652 21.71311 5.147728 1.548189 -14.77663 7.472134 1.318291 -21.3367 11.19075 80.4588 21.59989 -5.678995 -0 0 26.36621 -26.23721 13.93169 13.46937 4.495184 -13.67385 -3.075711 -93.46022 22.55071 25.25735 0 0 -10.25272 -4.372225 6.609561 17.19635
36.5412 99.43606 264.1263 2.578224 -8.545739 -2.665905 -1.754969 21.76772 7.081579 -0 25.62966 -0 7.647412 -11.87027 0.2256179 -2.612852 -21.62918 -6.778711 -0 25.70392 -0 -7.856866 -7.395278 18.86449 -1.850254 -1.072214 9.611475 -2.239403 9.189569 -1.920766 2.624619 21.871 5.137145 1.375038 -14.71031 7.714421 1.407369 -20.80664 10.9031 80.94118 21.52522 -5.986633 -0 0 25.67567 -26.01223 13.8241 13.30613 4.327725 -13.32754 -3.138521 -93.00611 22.94002 24.78522 0 0 -9.688359 -4.436517 6.699773 17.41924
37.57144 99.82203 270.9491 2.78425 -8.763093 -2.226146 -2.247835 19.67293 6.420711 -0 31.86853 -0 7.792047 -10.43666 -0.7854533 -3.771958 -18.27397 -7.706746 -0 25.07817 -0 -7.624262 -8.069894 18.35366 -2.188497 -1.220714 9.155158 -2.24704 8.984043 -2.051063 2.672292 22.13229 5.149652 1.194437 -14.56633 7.964231 1.617856 -20.02287 10.63847 81.7329 21.63666 -6.821483 -0 0 24.36357 -25.60511 13.78404 12.97442 4.19455 -13.26289 -3.256108 -92.18964 23.38446 23.64333 0 0 -9.607127 -4.344273 6.874011 17.43901
38.5745 100.572 277.6189 2.943597 -9.062349 -1.540446 -2.465877 16.26787 5.610024 -0 37.46507 -0 7.669019 -9.229651 -1.978078 -4.753391 -14.05362 -8.473217 -0 24.55113 -0 -7.37507 -8.932005 17.78397 -2.471581 -1.190159 8.465228 -2.165208 8.840514 -2.322387 2.678783 22.47998 5.191454 0.9972077 -14.34592 8.219508 1.870086 -19.09464 10.40581 82.77352 21.90052 -8.038991 -0 0 22.64637 -25.03129 13.79162 12.52166 4.122469 -13.5008 -3.431048 -91.01085 23.85496 21.81121 0 0 -10.05464 -4.076696 7.137891 17.22071
39.52503 101.5598 284.0199 3.02602 -9.390861 -0.6628375 -2.412168 11.64855 4.730185 -0 41.74795 -0 7.26035 -8.430304 -3.240005 -5.460842 -9.245225 -9.048086 -0 23.75089 -0 -7.124897 -9.988429 17.15857 -2.660493 -0.9551787 7.542045 -2.001778 8.725824 -2.743929 2.65039 22.88415 5.255702 0.7863841 -14.06414 8.475228 2.088716 -18.09872 10.1961 83.99784 22.26763 -9.519657 -0 0 20.71324 -24.31849 13.82191 11.98951 4.132406 -14.02211 -3.655103 -89.51261 24.30975 19.33968 0 0 -11.02059 -3.635707 7.488546 16.7559
40.40265 102.6128 290.1068 3.051737 -9.645284 0.3460973 -2.215757 6.203355 3.885638 -0 44.00786 -0 6.58628 -8.009748 -4.461183 -5.895667 -4.184116 -9.461419 -0 22.58439 -0 -6.898532 -11.19828 16.47664 -2.771699 -0.5973655 6.464488 -1.766887 8.594557 -3.303998 2.622551 23.29529 5.314283 0.583508 -13.75275 8.719899 2.18954 -17.07131 9.972618 85.32249 22.66911 -11.16999 -0 0 18.73211 -23.51053 13.83975 11.41323 4.251371 -14.76118 -3.90243 -87.79232 24.70398 16.36443 0 0 -12.44773 -3.046235 7.917946 16.05778
41.19522 103.5316 295.9251 3.05746 -9.705771 1.42246 -2.029637 0.4574209 3.154046 -0 43.60727 -0 5.691765 -7.840739 -5.542308 -6.101387 0.7876223 -9.761543 -0 21.12472 -0 -6.723696 -12.49626 15.73719 -2.852111 -0.2444871 5.348324 -1.472946 8.399895 -3.975651 2.642493 23.65818 5.329644 0.4178842 -13.45022 8.938188 2.097001 -16.02572 9.692955 86.6548 23.03585 -12.91016 -0 0 16.84315 -22.65567 13.80885 10.82091 4.506034 -15.63268 -4.13762 -85.97379 25.00429 13.06669 0 0 -14.25239 -2.343514 8.415632 15.15152
41.89641 104.1332 301.576 3.060915 -9.524249 2.503024 -1.923178 -5.154368 2.550973 -0 40.50195 -0 4.625767 -7.826647 -6.4375 -6.130824 5.439993 -9.985614 -0 19.55635 -0 -6.618334 -13.81502 14.9558 -2.936201 0.02275497 4.289586 -1.137764 8.123935 -4.708851 2.734036 23.94155 5.279075 0.3063291 -13.18665 9.115682 1.804326 -14.97185 9.353789 87.92458 23.33134 -14.67037 -0 0 15.10251 -21.78268 13.71321 10.22082 4.891708 -16.56745 -4.329871 -84.1688 25.19554 9.629208 0 0 -16.31994 -1.559316 8.966668 14.07605
42.50073 104.3145 307.1706 3.065226 -9.147328 3.526589 -1.87129 -10.26881 2.050701 -0 35.40084 -0 3.433633 -7.941607 -7.158695 -6.042321 9.64138 -10.14752 -0 18.22036 -0 -6.590308 -15.07668 14.17837 -3.030439 0.1889269 3.367896 -0.7875071 7.785746 -5.41241 2.888992 24.14124 5.157839 0.2500203 -12.98758 9.235047 1.393089 -13.92678 9.00591 89.0813 23.55497 -16.37563 -0 0 13.46657 -20.89184 13.55995 9.59139 5.358225 -17.51265 -4.451207 -82.48245 25.28034 6.256601 0 0 -18.47783 -0.7224271 9.552088 12.89016
43.00046 104.0857 312.8047 3.069635 -8.673167 4.433575 -1.799547 -14.57142 1.627274 -0 29.40396 -0 2.156209 -8.195813 -7.747128 -5.891834 13.30969 -10.24337 -0 17.53513 -0 -6.639305 -16.19192 13.4696 -3.121184 0.2736123 2.647687 -0.449907 7.425731 -5.979711 3.081582 24.26927 4.971754 0.2415707 -12.87437 9.278343 0.9847371 -12.91513 8.721952 90.08684 23.72649 -17.94817 -0 0 11.84678 -19.96881 13.36655 8.898048 5.831749 -18.42167 -4.478925 -81.01078 25.2797 3.162846 0 0 -20.52184 0.1380262 10.15245 11.66406
43.38733 103.5426 318.5558 3.059361 -8.197418 5.170449 -1.628953 -17.86709 1.297672 -0 23.48451 -0 0.8322518 -8.569271 -8.233881 -5.702064 16.38571 -10.27202 -0 17.80744 -0 -6.75764 -17.05887 12.89159 -3.182765 0.2970306 2.145051 -0.1418935 7.085034 -6.355428 3.286824 24.34811 4.732793 0.2714164 -12.85126 9.238558 0.6620057 -11.96726 8.542636 90.92137 23.86736 -19.32198 -0 0 10.209 -19.01139 13.14608 8.134529 6.251434 -19.24332 -4.40922 -79.82873 25.22991 0.5223465 0 0 -22.27333 0.9888396 10.74981 10.4659
43.6566 102.8343 324.4854 2.99182 -7.817251 5.702728 -1.26756 -20.01673 1.151793 -0 18.53186 -0 -0.4895918 -8.971501 -8.617404 -5.440101 18.77458 -10.2496 -0 19.28235 -0 -6.934622 -17.51141 12.52154 -3.169568 0.2664839 1.818244 0.1294136 6.807772 -6.549732 3.483327 24.41587 4.45803 0.3295408 -12.90147 9.12039 0.4577797 -11.12818 8.466591 91.5751 23.99386 -20.41987 -0 0 8.618331 -18.03994 12.90435 7.341381 6.565739 -19.89412 -4.259769 -79.02586 25.18143 -1.48264 0 0 -23.53654 1.77834 11.32464 9.378689
43.80966 102.1427 330.6386 2.815072 -7.628219 6.024363 -0.6262878 -20.90028 1.308601 -0 15.34108 -0 -1.753613 -9.280091 -8.871039 -5.044708 20.34399 -10.20356 -0 22.16204 -0 -7.155776 -17.35541 12.44775 -3.029218 0.183665 1.599186 0.3607938 6.637919 -6.607212 3.653155 24.51853 4.166458 0.4063641 -12.99674 8.934972 0.376594 -10.45263 8.470397 92.03884 24.11818 -21.15425 -0 0 7.198976 -17.08976 12.64381 6.586946 6.728079 -20.27453 -4.060985 -78.70057 25.18949 -2.665483 0 0 -24.10617 2.442147 11.85893 8.494492
43.85521 101.6484 337.032 2.52164 -7.680584 6.148963 0.2925451 -20.48946 1.789998 -0 14.15866 -0 -2.920759 -9.449895 -8.973473 -4.50965 20.97033 -10.14489 -0 26.41936 -0 -7.390617 -16.53443 12.72239 -2.752449 0.06814803 1.454317 0.548808 6.597331 -6.563271 3.78766 24.68422 3.873515 0.4952227 -13.11203 8.69712 0.4051427 -9.985845 8.533232 92.29733 24.24922 -21.4662 -0 0 6.054748 -16.20349 12.36445 5.933228 6.718453 -20.34073 -3.844236 -78.89358 25.28481 -2.945964 0 0 -23.88282 2.93391 12.34449 7.868509
43.81454 101.4776 343.6206 2.17726 -7.976043 6.091788 1.348377 -18.83474 2.468317 -0 14.48832 -0 -3.972821 -9.568692 -8.921031 -3.937924 20.46791 -10.04854 -0 31.71337 -0 -7.570605 -15.19705 13.3603 -2.400553 -0.01783746 1.419056 0.6842022 6.68294 -6.422557 3.887472 24.9187 3.592526 0.5930245 -13.22642 8.426649 0.5154172 -9.777767 8.648504 92.30931 24.3935 -21.30952 -0 0 5.268345 -15.44615 12.05967 5.441299 6.547907 -20.12479 -3.643012 -79.58742 25.46129 -2.359277 0 0 -22.88244 3.22486 12.78058 7.514994
43.72369 101.6658 350.2775 1.887014 -8.486014 5.856992 2.33063 -16.03344 3.140428 -0 15.40314 -0 -4.903488 -9.801846 -8.723918 -3.492653 18.60721 -9.871459 -0 37.49031 -0 -7.604531 -13.61149 14.34876 -2.076146 0.01320755 1.569077 0.7530465 6.875717 -6.168803 3.957345 25.21358 3.336671 0.6986951 -13.32249 8.146261 0.6709826 -9.88352 8.819237 92.01658 24.55311 -20.64008 -0 0 4.913634 -14.89913 11.71913 5.174569 6.248242 -19.70187 -3.489795 -80.73695 25.68448 -1.002054 0 0 -21.18597 3.297411 13.16866 7.423887
43.62306 102.168 356.8356 1.71107 -9.145173 5.438815 3.092904 -12.26368 3.657818 -0 16.16043 -0 -5.711892 -10.25457 -8.39648 -3.254556 15.34035 -9.608214 -0 43.10073 -0 -7.448012 -12.00981 15.62654 -1.850655 0.2031123 1.93966 0.7468133 7.140522 -5.793646 3.998852 25.54726 3.118256 0.8098795 -13.39597 7.874007 0.8348284 -10.32128 9.041857 91.39973 24.71922 -19.45912 -0 0 5.025107 -14.61986 11.34027 5.174538 5.868573 -19.14479 -3.39408 -82.27624 25.90077 0.9986173 0 0 -18.92672 3.163492 13.51065 7.558418
43.54422 102.8735 363.1577 1.637717 -9.819448 4.838073 3.579861 -7.821256 3.950012 -0 16.3615 -0 -6.395709 -10.91837 -7.941402 -3.164584 10.8935 -9.314884 -0 47.60148 -0 -7.123401 -10.56608 17.06615 -1.739165 0.5124486 2.490231 0.664121 7.412272 -5.306973 4.003831 25.87671 2.954355 0.9198721 -13.46309 7.623882 0.9586898 -11.06114 9.293412 90.49735 24.8709 -17.82536 -0 0 5.606846 -14.64682 10.93031 5.471233 5.489817 -18.51284 -3.330132 -84.10582 26.03906 3.48617 0 0 -16.31 2.878403 13.80852 7.84365
43.50545 103.6133 369.1833 1.618379 -10.32717 4.077826 3.791687 -3.073592 3.992785 -0 15.82946 -0 -6.950752 -11.71085 -7.347834 -3.08926 5.667423 -9.068826 -0 49.82987 -0 -6.684984 -9.422185 18.50325 -1.718628 0.8489644 3.130876 0.5087466 7.60616 -4.731336 3.956872 26.14439 2.866998 1.019119 -13.55409 7.40845 0.9837856 -12.04569 9.535226 89.38476 24.98209 -15.83286 -0 0 6.649835 -15.01132 10.49951 6.092242 5.21273 -17.85633 -3.251939 -86.09565 26.02654 6.283348 0 0 -13.58563 2.526284 14.06514 8.179567
